<?xml version="1.0" encoding="UTF-8"?><!-- Generator: Adobe Illustrator 21.0.0, SVG Export Plug-In . SVG Version: 6.00 Build 0) -->
<svg xmlns="http://www.w3.org/2000/svg"
  xmlns:xlink="http://www.w3.org/1999/xlink" id="logo" x="0px" y="0px" viewBox="0 0 400 300" style="enable-background:new 0 0 400 300;" xml:space="preserve">
  <path id="logo_1_" d="M95.5,190.7H73.7L67,174.6H30.6l-6.1,16.1H3l32.8-81.4h23.5L95.5,190.7z M47.9,128.8L36,160.4H61L47.9,128.8z M174.9,109.3h17.7v81.4h-20.3v-50.9l-22,25.5h-3.1l-22-25.5v50.9h-20.3v-81.4h17.7l26.1,30.2L174.9,109.3z M244,109.3 c29.7,0,45,18.5,45,40.8c0,23.4-14.8,40.6-47.3,40.6h-33.7v-81.4H244z M228.4,175.8h13.3c20.4,0,26.5-13.9,26.5-25.8 c0-14-7.5-25.8-26.7-25.8h-13L228.4,175.8L228.4,175.8z M329.4,128.6L303.8,103H397v93.2l-25.6-25.6v-42H329.4z M329.4,133.7 L303,160.1V197h36.9l26.4-26.4h-36.9V133.7z"></path>
</svg> 